<?xml version="1.0" encoding="UTF-8"?>
<svg id="Capa_1" data-name="Capa 1" xmlns="http://www.w3.org/2000/svg" viewBox="0 0 34.17 30">
  <defs>
    <style>
      .cls-1 {
        fill-rule: evenodd;
      }

      .cls-1, .cls-2 {
        fill: #fff;
        stroke-width: 0px;
      }
    </style>
  </defs>
  <g id="SVGRepo_iconCarrier" data-name="SVGRepo iconCarrier">
    <path class="cls-1" d="m8.7,10.38c0-4.63,3.75-8.38,8.38-8.38s8.38,3.75,8.38,8.38v1.04c0,2.49.34,4.69.85,6.24.26.78.54,1.33.8,1.66.19.24.31.29.33.3.62,0,1.12.51,1.12,1.13v.24c0,.62-.51,1.13-1.13,1.13H6.72c-.62,0-1.13-.51-1.13-1.13v-.24c0-.62.5-1.12,1.12-1.13.03,0,.14-.06.33-.3.26-.33.54-.88.8-1.66.51-1.54.85-3.75.85-6.24v-1.04Zm-2,9.23s0,0,0,0h0s0,0,0,0Z"/>
    <path class="cls-2" d="m13.97,24.04c-.43,0-.82.24-1.01.62-.19.38-.15.84.1,1.18.94,1.27,2.36,2.15,4.02,2.15s3.08-.88,4.02-2.15c.25-.34.29-.8.1-1.18-.19-.38-.58-.62-1.01-.62h-6.22Z"/>
  </g>
</svg>