<?xml version="1.0" encoding="UTF-8"?>
<svg id="Capa_1" data-name="Capa 1" xmlns="http://www.w3.org/2000/svg" viewBox="0 0 34.17 30">
  <defs>
    <style>
      .cls-1 {
        fill: #fff;
        stroke-width: 0px;
      }
    </style>
  </defs>
  <g id="SVGRepo_iconCarrier" data-name="SVGRepo iconCarrier">
    <g id="_7935ec95c421cee6d86eb22ecd12f847" data-name="7935ec95c421cee6d86eb22ecd12f847">
      <path class="cls-1" d="m29.41,8.68c.01.27.02.55.02.82,0,8.4-6.4,18.1-18.09,18.1-3.59,0-6.94-1.05-9.75-2.86.5.06,1,.09,1.52.09,2.98,0,5.72-1.02,7.9-2.72-2.78-.05-5.13-1.89-5.94-4.42.39.07.79.11,1.2.11.58,0,1.14-.08,1.68-.22-2.91-.58-5.1-3.15-5.1-6.24,0-.03,0-.05,0-.08.86.48,1.84.76,2.88.8-1.71-1.14-2.83-3.09-2.83-5.29,0-1.17.31-2.26.86-3.2,3.14,3.85,7.82,6.38,13.11,6.65-.11-.47-.16-.95-.16-1.45,0-3.51,2.85-6.36,6.36-6.36,1.83,0,3.48.77,4.64,2.01,1.45-.28,2.81-.81,4.04-1.54-.47,1.49-1.48,2.73-2.8,3.52,1.29-.15,2.51-.5,3.65-1-.85,1.28-1.93,2.4-3.17,3.29Z"/>
    </g>
  </g>
</svg>